<?xml version="1.0" encoding="utf-8"?>
<svg version="1.1" xmlns="http://www.w3.org/2000/svg" xmlns:xlink="http://www.w3.org/1999/xlink" x="0px" y="0px"
	 viewBox="0 0 455.7 455.7" enable-background="new 0 0 455.7 455.7" xml:space="preserve">
<path fill-rule="evenodd" clip-rule="evenodd" fill="#EEEEEE" d="M455.7,228.1c0,62.7-22.1,116.5-66.5,161.3
	c-1.5,1.8-3.1,3.4-4.9,4.8c-7.3,7.1-15,13.6-23.1,19.5c-38.4,28.3-82.8,42.5-133.1,42.5c-50.4,0-94.7-14.2-132.9-42.5
	c-10.1-7.1-19.6-15.2-28.4-24.3c-34.4-34.2-55.6-74-63.4-119.2c-1.5-8.8-2.6-17.8-3-26.9c-0.2-5-0.3-10.1-0.3-15.1
	c0-5.3,0.1-10.4,0.3-15.2c0-0.5,0.1-1,0.4-1.5c3.3-55.9,25.3-104.3,66-145C111.6,22.1,165.3,0,228.1,0C291,0,344.7,22.1,389.2,66.3
	C433.6,111.4,455.7,165.3,455.7,228.1L455.7,228.1z"/>
<g>
	<g>
		<g>
			<path fill="#3A3F51" d="M347.2,337.5v-5.2c0-60-23.3-116.3-65.6-158.6S182.9,108,122.9,108h-5.2V41.4h5.2
				c77.8,0,150.8,30.2,205.7,85.1s85.1,128,85.1,205.7v5.2L347.2,337.5L347.2,337.5z"/>
		</g>
		<g>
			<path fill="#3A3F51" d="M251.6,337.5v-5.2c0-71.2-58-129.1-129.1-129.1h-5.2v-66.6h5.2c108,0,195.8,87.8,195.8,195.8v5.2
				L251.6,337.5L251.6,337.5z"/>
		</g>
		<g>
			<path fill="#00CCFF" d="M162.3,339c-25.1,0-45.5-20.4-45.5-45.5s20.4-45.5,45.5-45.5s45.5,20.4,45.5,45.5S187.5,339,162.3,339z"
				/>
		</g>
	</g>
</g>
</svg>

