<?xml version="1.0" encoding="utf-8"?>
<svg version="1.1" id="Capa_1" xmlns="http://www.w3.org/2000/svg" xmlns:xlink="http://www.w3.org/1999/xlink" x="0px" y="0px"
	 viewBox="0 0 455.7 455.7" enable-background="new 0 0 455.7 455.7" xml:space="preserve">
<g>
	<rect fill="none" width="455.7" height="455.7"/>
	<g>
		<g>
			<path fill="#EEEEEE" d="M321.6,396.6v-6c0-68.7-26.7-133.2-75.2-181.7c-48.5-48.5-113-75.2-181.7-75.2h-6V57.4h6
				c89.1,0,172.7,34.6,235.6,97.5c62.9,62.9,97.5,146.6,97.5,235.6v6H321.6z"/>
			<path fill="#3A3F51" d="M64.8,63.4c87.5,0,169.6,34,231.4,95.8S392,303.1,392,390.6h-64.3c0-70.3-27.3-136.3-76.9-185.9
				c-49.6-49.6-115.6-76.9-185.9-76.9V63.4 M64.8,51.4h-12v12v64.3v12h12c67.1,0,130.1,26.1,177.4,73.4
				c47.3,47.3,73.4,110.4,73.4,177.4v12h12H392h12l0-12c0-90.7-35.3-175.9-99.3-239.9C240.7,86.6,155.5,51.4,64.8,51.4L64.8,51.4z"
				/>
		</g>
		<g>
			<path fill="#00CCFF" d="M212.1,396.6v-6c0-81.6-66.4-147.9-147.9-147.9h-6v-76.3h6c123.7,0,224.3,100.6,224.3,224.3v6H212.1z"/>
			<path fill="#00CCFF" d="M64.1,172.3c120.4,0,218.3,97.9,218.3,218.3h-64.3c0-84.9-69.1-153.9-153.9-153.9V172.3 M64.1,160.3h-12
				v12v64.3v12h12c78.3,0,141.9,63.7,141.9,141.9v12h12h64.3h12v-12C294.4,263.6,191.1,160.3,64.1,160.3L64.1,160.3z"/>
		</g>
		<g>
			<path fill="#3A3F51" d="M109.8,398.3c-28.7,0-52.1-23.4-52.1-52.1s23.4-52.1,52.1-52.1s52.1,23.4,52.1,52.1
				S138.6,398.3,109.8,398.3z"/>
			<path fill="#EEEEEE" d="M109.8,300.2c25.5,0,46.1,20.6,46.1,46.1s-20.6,46.1-46.1,46.1s-46.1-20.6-46.1-46.1
				S84.4,300.2,109.8,300.2 M109.8,288.2c-32,0-58.1,26.1-58.1,58.1s26.1,58.1,58.1,58.1s58.1-26.1,58.1-58.1
				S141.9,288.2,109.8,288.2L109.8,288.2z"/>
		</g>
	</g>
</g>
</svg>
